<svg xmlns="http://www.w3.org/2000/svg" viewBox="0 0 300 108.85"><defs><style>.cls-1{fill:#3784f4;}</style></defs><title>Billplz_Blue</title><g id="Layer_2" data-name="Layer 2"><g id="Layer_1-2" data-name="Layer 1"><path class="cls-1" d="M0,5.31H29.2c13.72,0,28.65,2.88,28.65,19.91,0,8.74-5.42,14.71-13.49,17.26v.22C54.64,44,61.5,51.66,61.5,61.83c0,16.38-15.48,21.8-29.42,21.8H0Zm17.26,31.3h12.5c5.31,0,10.84-2.21,10.84-8.51,0-6.53-6.2-8.19-11.62-8.19H17.26Zm0,32.41H32.74c5.42,0,11.51-2.32,11.51-9.18,0-7.41-8.3-8.62-13.94-8.62h-13Z"/><path class="cls-1" d="M78.1,3.32a9.63,9.63,0,1,1-9.63,9.62A9.62,9.62,0,0,1,78.1,3.32ZM69.8,29.87H86.39V83.63H69.8Z"/><path class="cls-1" d="M98.56,0h16.59V83.63H98.56Z"/><path class="cls-1" d="M127.33,0h16.59V83.63H127.33Z"/><path class="cls-1" d="M157.41,29.87h15.27V37h.22c2.54-3.88,9-8.41,16.48-8.41,15.93,0,26.44,11.5,26.44,27.76,0,14.94-9.29,28.65-24.56,28.65-6.86,0-13.27-1.88-17-7.08H174v31h-16.6ZM186,70.35c8.3,0,13.28-5.53,13.28-13.6s-5-13.61-13.28-13.61-13.27,5.53-13.27,13.61S177.66,70.35,186,70.35Z"/><path class="cls-1" d="M225.78,0h16.59V83.63H225.78Z"/><path class="cls-1" d="M252.21,67l27.88-23.89H252.88V29.87h46.46V45.8L270.13,70.35H300V83.63H252.21Z"/></g></g></svg>